<svg width="266" height="519" viewBox="0 0 266 519" fill="none" xmlns="http://www.w3.org/2000/svg">
<path d="M61.8607 517.713C7.55839 492.108 -29.4829 461.272 35.4623 453.961M35.4623 453.961C46.8211 452.682 61.2997 452.123 79.3512 452.438C179.754 454.187 173.998 432.188 137.075 408.137M35.4623 453.961C45.8405 460.931 58.9916 468.067 73.3494 474.837M35.4623 453.961C6.58911 434.57 -0.822468 416.463 46.9509 411.085M137.075 408.137C125.9 400.857 111.869 393.39 97.0631 386.336M137.075 408.137C125.151 409.369 109.91 409.894 90.8398 409.562C72.7883 409.247 58.3097 409.806 46.9509 411.085M137.075 408.137C187.932 402.88 178.474 384.744 148.564 365.261M46.9509 411.085C57.3291 418.055 70.4802 425.191 84.838 431.961M46.9509 411.085C18.0777 391.694 10.6662 373.586 58.4395 368.209M148.564 365.261C137.389 357.981 123.358 350.514 108.552 343.46M148.564 365.261C136.639 366.493 121.399 367.018 102.328 366.686C84.2769 366.371 69.7984 366.93 58.4395 368.209M148.564 365.261C199.421 360.004 189.963 341.867 160.053 322.385M58.4395 368.209C68.8178 375.179 81.9689 382.315 96.3266 389.085M58.4395 368.209C29.5664 348.818 22.1548 330.71 69.9282 325.333M160.053 322.385C148.877 315.105 134.847 307.638 120.04 300.584M160.053 322.385C148.128 323.617 132.887 324.142 113.817 323.809C95.7655 323.495 81.287 324.054 69.9282 325.333M160.053 322.385C210.909 317.128 201.451 298.991 171.541 279.508M69.9282 325.333C80.3064 332.303 93.4575 339.438 107.815 346.209M69.9282 325.333C41.055 305.941 33.6434 287.834 81.4168 282.456M171.541 279.508C160.366 272.229 146.335 264.762 131.529 257.708M171.541 279.508C159.617 280.741 144.376 281.266 125.306 280.933C107.254 280.619 92.7756 281.178 81.4168 282.456M171.541 279.508C222.398 274.252 212.94 256.115 183.03 236.632M81.4168 282.456C91.795 289.426 104.946 296.562 119.304 303.332M81.4168 282.456C52.5436 263.065 45.132 244.958 92.9054 239.58M183.03 236.632C171.854 229.353 157.824 221.886 143.018 214.832M183.03 236.632C171.105 237.865 155.865 238.389 136.794 238.057C118.743 237.743 104.264 238.302 92.9054 239.58M183.03 236.632C233.887 231.375 224.428 213.239 194.518 193.756M92.9054 239.58C103.284 246.55 116.435 253.686 130.793 260.456M92.9054 239.58C64.0322 220.189 56.6207 202.082 104.394 196.704M194.518 193.756C183.343 186.477 169.313 179.009 154.506 171.956M194.518 193.756C182.594 194.989 167.353 195.513 148.283 195.181C130.231 194.867 115.753 195.426 104.394 196.704M194.518 193.756C245.375 188.499 235.917 170.363 206.007 150.88M104.394 196.704C114.772 203.674 127.923 210.81 142.281 217.58M104.394 196.704C75.5209 177.313 68.1093 159.206 115.883 153.828M206.007 150.88C194.832 143.601 180.801 136.133 165.995 129.079M206.007 150.88C194.082 152.113 178.842 152.637 159.772 152.305C141.72 151.99 127.242 152.549 115.883 153.828M206.007 150.88C256.864 145.623 247.406 127.487 217.496 108.004M115.883 153.828C126.261 160.798 139.412 167.934 153.77 174.704M115.883 153.828C87.0095 134.437 79.5979 116.33 127.371 110.952M217.496 108.004C206.32 100.724 192.29 93.2571 177.483 86.2034M217.496 108.004C205.571 109.237 190.331 109.761 171.26 109.429C153.209 109.114 138.73 109.673 127.371 110.952M217.496 108.004C268.352 102.747 258.894 84.6106 228.984 65.1278M127.371 110.952C137.75 117.922 150.901 125.058 165.258 131.828M127.371 110.952C91.6331 86.9502 88.7754 64.9155 182.749 66.5527C201.819 66.8849 217.06 66.3604 228.984 65.1278M228.984 65.1278C217.809 57.8483 203.778 50.381 188.972 43.3272M228.984 65.1278C298.843 57.9068 254.895 26.3837 200.461 0.451085" stroke="black"/>
</svg>
