<svg width="30" height="28" viewBox="0 0 30 28" fill="none" xmlns="http://www.w3.org/2000/svg">
<path d="M25.6112 10.2812C22.8824 9.11874 19.2162 8.36874 15.2987 8.16249C14.6737 8.12499 14.0649 8.11249 13.4862 8.11249C16.3837 4.57499 19.4887 2.19999 21.5324 2.12499C21.9349 2.10874 22.2762 2.19374 22.5487 2.36999C23.4312 2.94249 23.6799 4.57999 23.2299 6.85749C23.1799 7.16999 23.3799 7.47374 23.6799 7.53249C23.9924 7.59499 24.2924 7.39499 24.3549 7.08249C24.9174 4.23249 24.5049 2.27499 23.1799 1.40999C22.7049 1.09999 22.1299 0.953743 21.4924 0.977493C18.9299 1.07374 15.3174 3.85249 12.0049 8.12749C10.5624 8.17124 9.20492 8.28999 7.96492 8.48624C7.15742 4.86499 7.47742 2.26499 8.70742 1.63999C8.87992 1.54874 9.06367 1.50249 9.27867 1.48499C10.1499 1.41749 11.3537 1.97874 12.6662 3.07249C12.9087 3.27249 13.2737 3.24749 13.4737 2.99749C13.5217 2.93963 13.5579 2.87288 13.5801 2.80104C13.6023 2.72921 13.6101 2.6537 13.6032 2.57883C13.5962 2.50396 13.5746 2.4312 13.5395 2.36469C13.5044 2.29819 13.4565 2.23925 13.3987 2.19124C11.8237 0.887493 10.3712 0.249993 9.18367 0.337493C8.83487 0.365743 8.49442 0.459015 8.17992 0.612492C6.69242 1.37124 6.09242 3.52124 6.46742 6.65999C6.55492 7.30999 6.66742 7.98749 6.82992 8.68499C2.72867 9.50499 0.116174 11.1475 0.0036739 13.215C-0.0713261 14.6775 1.08492 16.07 3.35367 17.2425C3.42113 17.2834 3.49628 17.31 3.57446 17.3207C3.65264 17.3313 3.73217 17.3257 3.80811 17.3043C3.88404 17.2829 3.95475 17.246 4.01584 17.1961C4.07693 17.1462 4.12709 17.0842 4.1632 17.0141C4.19931 16.9439 4.22059 16.8671 4.22573 16.7883C4.23086 16.7096 4.21974 16.6307 4.19305 16.5564C4.16636 16.4822 4.12468 16.4142 4.07059 16.3567C4.01651 16.2993 3.95118 16.2536 3.87867 16.2225C2.06617 15.2887 1.09117 14.2375 1.14992 13.275C1.21242 11.925 3.36492 10.5375 7.09992 9.79999C7.43742 11.0425 7.87492 12.34 8.41242 13.6625C7.13992 16.0225 6.21742 18.3462 5.74117 20.4125C5.04117 23.4937 5.41617 25.6875 6.81617 26.5975C7.26617 26.89 7.79117 27.035 8.37492 27.035C9.54367 27.035 10.9587 26.46 12.5587 25.32C12.6236 25.278 12.6794 25.2234 12.7226 25.1593C12.7659 25.0952 12.7957 25.023 12.8103 24.9471C12.8249 24.8712 12.8239 24.7931 12.8075 24.7175C12.7911 24.642 12.7595 24.5705 12.7148 24.5075C12.67 24.4445 12.6129 24.3912 12.547 24.3508C12.481 24.3104 12.4076 24.2839 12.3311 24.2726C12.2546 24.2614 12.1766 24.2658 12.1019 24.2856C12.0271 24.3053 11.9572 24.34 11.8962 24.3875C9.96617 25.7662 8.34117 26.2275 7.44367 25.6412C6.49367 25.0225 6.28617 23.2125 6.86867 20.6712C7.26867 18.9387 8.00242 17.0087 9.00367 15.0212C9.25367 15.5687 9.51617 16.1162 9.79117 16.6625C11.5724 20.1575 13.7537 23.1962 15.9287 25.2187C17.6612 26.8312 19.2712 27.6725 20.5974 27.6725C21.0349 27.6725 21.4474 27.5787 21.8174 27.3937C23.2487 26.6625 23.8674 24.6312 23.5649 21.675C23.2849 18.9087 22.2399 15.5375 20.6224 12.175C20.5542 12.0418 20.4367 11.9405 20.2949 11.8925C20.1531 11.8446 19.9982 11.8538 19.8631 11.9183C19.728 11.9827 19.6234 12.0973 19.5715 12.2377C19.5195 12.378 19.5243 12.5331 19.5849 12.67C22.9474 19.6725 23.1849 25.4075 21.2974 26.37C19.3099 27.3862 14.5174 23.4262 10.8099 16.145C10.3849 15.3262 10.0137 14.52 9.68492 13.7325C10.1099 12.9725 10.5599 12.2075 11.0537 11.445C11.5474 10.69 12.0612 9.95999 12.5837 9.26374H13.0762C13.7512 9.26374 14.4837 9.27624 15.2437 9.32374C23.4062 9.75249 28.9624 12.5237 28.8487 14.7412C28.7987 15.6975 27.6937 16.6637 25.8174 17.3912C25.6764 17.4481 25.5634 17.558 25.5026 17.6973C25.4418 17.8366 25.4382 17.9942 25.4924 18.1362C25.5191 18.2068 25.5596 18.2713 25.6114 18.326C25.6633 18.3808 25.7255 18.4247 25.7945 18.4552C25.8635 18.4856 25.9378 18.5021 26.0132 18.5036C26.0886 18.505 26.1636 18.4915 26.2337 18.4637C28.6149 17.5387 29.9212 16.2687 29.9962 14.8012C30.0837 13.1387 28.5337 11.5387 25.6212 10.3012V10.2887L25.6112 10.2812ZM10.0912 10.8125C9.75367 11.3312 9.44117 11.8462 9.13617 12.3675C8.78964 11.46 8.48802 10.5359 8.23242 9.59874C9.12367 9.46124 10.0887 9.36124 11.1199 9.29874C10.7699 9.78624 10.4274 10.2912 10.0949 10.8112V10.7987L10.0912 10.8125ZM14.9974 12.2812C14.5416 12.2812 14.1044 12.4623 13.7821 12.7847C13.4598 13.107 13.2787 13.5442 13.2787 14C13.2787 14.4558 13.4598 14.893 13.7821 15.2153C14.1044 15.5377 14.5416 15.7187 14.9974 15.7187C15.4533 15.7187 15.8904 15.5377 16.2128 15.2153C16.5351 14.893 16.7162 14.4558 16.7162 14C16.7162 13.5442 16.5351 13.107 16.2128 12.7847C15.8904 12.4623 15.4533 12.2812 14.9974 12.2812Z" fill="#B8B8B8"/>
</svg>
