<svg width="138" height="40" viewBox="0 0 138 40" fill="none" xmlns="http://www.w3.org/2000/svg">
<path d="M26.6427 12.381H30.6391L37.2997 37.1429H33.3034L26.6427 12.381Z" fill="white"/>
<path d="M18.6495 12.381H22.979L30.1947 37.1429H25.8652L18.6495 12.381Z" fill="white"/>
<path d="M10.2766 2.91667L0.00012207 40L7.99291 37.5L18.65 0L10.2766 2.91667Z" fill="white"/>
<path d="M57.5579 24.791L53.674 14.3718L49.7901 24.791H57.5579ZM61.7092 31.4935H60.0768L58.1771 26.421H49.1709L47.2712 31.4935H45.6388L53.674 10L61.7092 31.4935Z" fill="white"/>
<path d="M71.6948 12.0564V23.3592H76.9155C78.3603 23.3592 79.5939 22.8108 80.6165 21.714C81.6297 20.5969 82.1363 19.2615 82.1363 17.7078C82.1363 16.154 81.6297 14.8237 80.6165 13.7168C79.5939 12.6099 78.3603 12.0564 76.9155 12.0564H71.6948ZM79.6174 24.4407C81.0152 25.4359 82.0284 26.553 82.657 27.7919C83.2949 29.0512 83.6139 30.285 83.6139 31.4935H82.0941C82.0941 29.8585 81.4796 28.3657 80.2506 27.015C79.0029 25.6745 77.5065 25.0043 75.7616 25.0043H71.6948V31.4935H70.175V10.4113H76.9155C78.7824 10.4113 80.3726 11.1272 81.686 12.5591C83.0088 13.9808 83.6701 15.6971 83.6701 17.7078C83.6701 19.0686 83.3418 20.3329 82.6851 21.5008C82.0472 22.6178 81.0246 23.5978 79.6174 24.4407Z" fill="white"/>
<path d="M93.0225 31.4935V10.4113H94.5423V31.4935H93.0225Z" fill="white"/>
<path d="M115.687 29.8483V31.4935H104.359V10.4113H115.687V12.0564H105.879V20.0689H113.787V21.714H105.879V29.8483H115.687Z" fill="white"/>
<path d="M131.47 31.9048C129.876 31.9048 128.431 31.4935 127.136 30.6709C125.579 29.696 124.584 28.4165 124.153 26.8322L125.588 26.3753C125.917 27.5939 126.705 28.584 127.952 29.3457C128.975 29.9753 130.152 30.2901 131.484 30.2901C131.691 30.2901 131.869 30.285 132.019 30.2749C132.169 30.2647 132.348 30.2393 132.554 30.1987C133.136 30.0971 133.666 29.9296 134.144 29.696C135.589 28.9851 136.372 27.7665 136.494 26.0401C136.56 25.116 136.307 24.2934 135.734 23.5724C134.881 22.496 133.534 21.8917 131.696 21.7597C128.844 21.5566 126.794 20.8458 125.546 19.6271C124.627 18.7436 124.167 17.6012 124.167 16.1997C124.167 14.2804 124.866 12.747 126.264 11.5994C127.549 10.5331 129.106 10 130.936 10C133.093 10 134.899 10.8276 136.353 12.4829C136.813 13.0212 137.212 13.6102 137.55 14.25C137.662 14.4531 137.747 14.6308 137.803 14.7831L136.41 15.3467C136.372 15.2756 136.264 15.0725 136.086 14.7374C135.908 14.3921 135.631 14.0164 135.256 13.6102C134.092 12.2798 132.652 11.6147 130.936 11.6147C130.42 11.6147 129.894 11.6858 129.36 11.8279C128.731 11.9701 128.163 12.1986 127.657 12.5134C126.325 13.3563 125.659 14.5851 125.659 16.1997C125.659 18.5354 127.704 19.8505 131.794 20.145C134.046 20.3075 135.734 21.0946 136.86 22.5061C137.704 23.5623 138.08 24.7809 137.986 26.162C137.845 28.0204 137.109 29.4726 135.776 30.5186C134.594 31.4427 133.168 31.9048 131.499 31.9048H131.47Z" fill="white"/>
</svg>
