<svg width="26" height="28" viewBox="0 0 26 28" fill="none" xmlns="http://www.w3.org/2000/svg">
<path d="M22.0002 23L25.0002 21.5V17.75M16.0002 11L13.0002 12.5L16.0002 11ZM13.0002 12.5L10.0002 11L13.0002 12.5ZM13.0002 12.5V16.25V12.5ZM25.0002 6.5L22.0002 8L25.0002 6.5ZM25.0002 6.5L22.0002 5L25.0002 6.5ZM25.0002 6.5V10.25V6.5ZM16.0002 2L13.0002 0.5L10.0002 2H16.0002ZM1.0002 6.5L4.0002 5L1.0002 6.5ZM1.0002 6.5L4.0002 8L1.0002 6.5ZM1.0002 6.5V10.25V6.5ZM13.0002 27.5L10.0002 26L13.0002 27.5ZM13.0002 27.5L16.0002 26L13.0002 27.5ZM13.0002 27.5V23.75V27.5ZM4.0002 23L1.0002 21.5V17.75L4.0002 23Z" stroke="#B8B8B8" stroke-linecap="round" stroke-linejoin="round"/>
</svg>
