<svg width="23" height="29" viewBox="0 0 23 29" fill="none" xmlns="http://www.w3.org/2000/svg">
<path d="M6.87501 14.5C6.87501 11.9457 8.94569 9.87497 11.5 9.87497C14.0543 9.87497 16.125 11.9457 16.125 14.5C16.125 17.0543 14.0543 19.125 11.5 19.125C8.94569 19.125 6.87501 17.0543 6.87501 14.5ZM8.41667 14.5C8.41667 16.2029 9.79713 17.5833 11.5 17.5833C13.2029 17.5833 14.5833 16.2029 14.5833 14.5C14.5833 12.7971 13.2029 11.4166 11.5 11.4166C9.79713 11.4166 8.41667 12.7971 8.41667 14.5ZM5.13408 9.62133C4.84845 9.937 4.36099 9.96135 4.04532 9.67572C3.72964 9.39009 3.70529 8.90263 3.99093 8.58695C4.21708 8.33701 4.45558 8.09851 4.70552 7.87236C8.85267 4.11987 15.2566 4.4398 19.0091 8.58695C19.2947 8.90263 19.2704 9.39009 18.9547 9.67572C18.639 9.96135 18.1516 9.937 17.8659 9.62133C14.6847 6.10553 9.25569 5.83429 5.73989 9.01552C5.528 9.20724 5.32581 9.40943 5.13408 9.62133ZM22.1084 5.52183C22.384 5.84632 22.3443 6.33277 22.0198 6.60835C21.6953 6.88393 21.2089 6.84427 20.9333 6.51978C16.5088 1.30992 8.69855 0.673279 3.48869 5.09781C2.97691 5.53244 2.50135 6.008 2.06672 6.51978C1.79114 6.84427 1.30469 6.88393 0.980198 6.60835C0.655706 6.33277 0.616052 5.84632 0.89163 5.52183C1.38041 4.9463 1.91521 4.4115 2.49074 3.92272C8.34958 -1.05296 17.1327 -0.337014 22.1084 5.52183ZM17.864 19.3807C18.1485 19.064 18.6359 19.0379 18.9526 19.3223C19.2693 19.6068 19.2954 20.0942 19.011 20.4109C15.2851 24.5591 8.90188 24.9014 4.75369 21.1756C4.48533 20.9345 4.23008 20.6793 3.98904 20.4109C3.70456 20.0942 3.7307 19.6068 4.04742 19.3223C4.36414 19.0379 4.8515 19.064 5.13598 19.3807C5.34021 19.6081 5.55649 19.8244 5.78387 20.0286C9.29862 23.1855 14.7071 22.8955 17.864 19.3807ZM20.9336 22.4799C21.2093 22.1555 21.6958 22.1161 22.0201 22.3919C22.3445 22.6676 22.3839 23.1541 22.1081 23.4784C17.1272 29.3371 8.33992 30.0487 2.48122 25.0678C1.90948 24.5817 1.37798 24.0502 0.891896 23.4784C0.616147 23.1541 0.655538 22.6676 0.979882 22.3919C1.30422 22.1161 1.7907 22.1555 2.06645 22.4798C2.49871 22.9883 2.97137 23.4609 3.47981 23.8932C8.68981 28.3226 16.5041 27.6899 20.9336 22.4799Z" fill="#B8B8B8"/>
</svg>
