<svg width="284" height="555" viewBox="0 0 284 555" fill="none" xmlns="http://www.w3.org/2000/svg">
<path d="M65.6171 553.716C7.56396 526.342 -32.0358 493.376 37.3952 485.56M37.3952 485.56C49.5386 484.193 65.0172 483.595 84.3156 483.932C191.654 485.802 185.5 462.283 146.027 436.571M37.3952 485.56C48.4903 493.011 62.5497 500.64 77.8992 507.878M37.3952 485.56C6.52772 464.829 -1.39578 445.471 49.6774 439.722M146.027 436.571C134.079 428.789 119.08 420.805 103.251 413.264M146.027 436.571C133.279 437.888 116.985 438.449 96.5978 438.094C77.2994 437.758 61.8208 438.355 49.6774 439.722M146.027 436.571C200.396 430.951 190.285 411.562 158.309 390.733M49.6774 439.722C60.7724 447.174 74.8319 454.803 90.1814 462.04M49.6774 439.722C18.8099 418.992 10.8864 399.634 61.9595 393.885M158.309 390.733C146.362 382.951 131.362 374.968 115.533 367.427M158.309 390.733C145.561 392.051 129.267 392.612 108.88 392.256C89.5815 391.92 74.1029 392.518 61.9595 393.885M158.309 390.733C212.678 385.113 202.567 365.724 170.591 344.896M61.9595 393.885C73.0546 401.336 87.114 408.965 102.464 416.203M61.9595 393.885C31.092 373.154 23.1685 353.796 74.2417 348.047M170.591 344.896C158.644 337.113 143.644 329.13 127.815 321.589M170.591 344.896C157.843 346.213 141.55 346.774 121.162 346.419C101.864 346.083 86.3851 346.68 74.2417 348.047M170.591 344.896C224.961 339.276 214.849 319.886 182.873 299.058M74.2417 348.047C85.3368 355.499 99.3962 363.127 114.746 370.365M74.2417 348.047C43.3742 327.317 35.4507 307.959 86.5239 302.209M182.873 299.058C170.926 291.276 155.926 283.292 140.097 275.751M182.873 299.058C170.125 300.376 153.832 300.936 133.444 300.581C114.146 300.245 98.6672 300.843 86.5239 302.209M182.873 299.058C237.243 293.438 227.131 274.049 195.155 253.22M86.5239 302.209C97.6189 309.661 111.678 317.29 127.028 324.527M86.5239 302.209C55.6564 281.479 47.7329 262.121 98.806 256.372M195.155 253.22C183.208 245.438 168.208 237.455 152.379 229.914M195.155 253.22C182.407 254.538 166.114 255.099 145.726 254.744C126.428 254.407 110.949 255.005 98.806 256.372M195.155 253.22C249.525 247.6 239.413 228.211 207.438 207.383M98.806 256.372C109.901 263.823 123.961 271.452 139.31 278.69M98.806 256.372C67.9385 235.641 60.015 216.283 111.088 210.534M207.438 207.383C195.49 199.6 180.491 191.617 164.662 184.076M207.438 207.383C194.689 208.7 178.396 209.261 158.009 208.906C138.71 208.57 123.232 209.167 111.088 210.534M207.438 207.383C261.807 201.763 251.696 182.373 219.72 161.545M111.088 210.534C122.183 217.986 136.243 225.614 151.592 232.852M111.088 210.534C80.2207 189.804 72.2972 170.446 123.37 164.697M219.72 161.545C207.772 153.763 192.773 145.78 176.944 138.239M219.72 161.545C206.971 162.863 190.678 163.423 170.291 163.068C150.992 162.732 135.514 163.33 123.37 164.697M219.72 161.545C274.089 155.925 263.978 136.536 232.002 115.707M123.37 164.697C134.465 172.148 148.525 179.777 163.874 187.015M123.37 164.697C92.5028 143.966 84.5793 124.608 135.652 118.859M232.002 115.707C220.055 107.925 205.055 99.9419 189.226 92.4009M232.002 115.707C219.254 117.025 202.96 117.586 182.573 117.231C163.274 116.894 147.796 117.492 135.652 118.859M232.002 115.707C286.371 110.087 276.26 90.6982 244.284 69.8697M135.652 118.859C146.748 126.31 160.807 133.939 176.156 141.177M135.652 118.859C97.4458 93.1994 94.3907 69.6427 194.855 71.393C215.243 71.7482 231.536 71.1874 244.284 69.8697M244.284 69.8697C232.337 62.0875 217.337 54.1043 201.508 46.5633M244.284 69.8697C318.968 62.1499 271.984 28.4495 213.79 0.725689" stroke="black"/>
</svg>
