<svg width="151" height="293" viewBox="0 0 151 293" fill="none" xmlns="http://www.w3.org/2000/svg">
<path d="M115.333 291.818C145.864 277.422 166.69 260.085 130.175 255.974M130.175 255.974C123.789 255.255 115.648 254.941 105.499 255.118C49.0481 256.101 52.2844 243.732 73.0442 230.21M130.175 255.974C124.34 259.893 116.946 263.905 108.874 267.712M130.175 255.974C146.409 245.072 150.576 234.891 123.716 231.867M73.0442 230.21C79.3275 226.117 87.216 221.919 95.5407 217.953M73.0442 230.21C79.7487 230.903 88.3176 231.198 99.0397 231.011C109.189 230.834 117.33 231.148 123.716 231.867M73.0442 230.21C44.4503 227.254 49.7681 217.057 66.5848 206.103M123.716 231.867C117.881 235.786 110.487 239.798 102.414 243.605M123.716 231.867C139.95 220.965 144.117 210.784 117.257 207.761M66.5848 206.103C72.8681 202.01 80.7566 197.812 89.0814 193.846M66.5848 206.103C73.2893 206.796 81.8582 207.091 92.5803 206.904C102.73 206.727 110.87 207.042 117.257 207.761M66.5848 206.103C37.9909 203.147 43.3087 192.95 60.1254 181.996M117.257 207.761C111.421 211.679 104.027 215.692 95.9548 219.498M117.257 207.761C133.49 196.858 137.657 186.677 110.797 183.654M60.1254 181.996C66.4087 177.904 74.2972 173.705 82.622 169.739M60.1254 181.996C66.8299 182.689 75.3988 182.984 86.1209 182.797C96.2703 182.621 104.411 182.935 110.797 183.654M60.1254 181.996C31.5315 179.041 36.8493 168.844 53.666 157.89M110.797 183.654C104.962 187.573 97.568 191.585 89.4954 195.391M110.797 183.654C127.031 172.751 131.198 162.571 104.338 159.547M53.666 157.89C59.9493 153.797 67.8378 149.598 76.1626 145.632M53.666 157.89C60.3705 158.583 68.9394 158.877 79.6615 158.691C89.8109 158.514 97.9513 158.828 104.338 159.547M53.666 157.89C25.0721 154.934 30.3899 144.737 47.2066 133.783M104.338 159.547C98.5027 163.466 91.1086 167.478 83.036 171.284M104.338 159.547C120.571 148.645 124.739 138.464 97.8784 135.44M47.2066 133.783C53.4899 129.69 61.3784 125.491 69.7032 121.526M47.2066 133.783C53.9111 134.476 62.48 134.771 73.2021 134.584C83.3515 134.407 91.4919 134.721 97.8784 135.44M47.2066 133.783C18.6127 130.827 23.9305 120.63 40.7472 109.676M97.8784 135.44C92.0433 139.359 84.6492 143.371 76.5766 147.178M97.8784 135.44C114.112 124.538 118.279 114.357 91.419 111.333M40.7472 109.676C47.0305 105.583 54.919 101.385 63.2438 97.4188M40.7472 109.676C47.4517 110.369 56.0206 110.664 66.7427 110.477C76.8921 110.3 85.0325 110.615 91.419 111.333M40.7472 109.676C12.1533 106.72 17.4711 96.5232 34.2878 85.5692M91.419 111.333C85.5839 115.252 78.1898 119.264 70.1172 123.071M91.419 111.333C107.653 100.431 111.82 90.2502 84.9596 87.2267M34.2878 85.5692C40.5711 81.4764 48.4596 77.2779 56.7844 73.312M34.2878 85.5692C40.9923 86.2622 49.5612 86.5571 60.2833 86.3703C70.4327 86.1935 78.5731 86.5078 84.9596 87.2267M34.2878 85.5692C5.69393 82.6135 11.0117 72.4165 27.8284 61.4624M84.9596 87.2267C79.1245 91.1455 71.7304 95.1576 63.6578 98.9641M84.9596 87.2267C101.193 76.3241 105.36 66.1434 78.5002 63.1199M27.8284 61.4624C34.1117 57.3696 42.0002 53.1711 50.325 49.2052M27.8284 61.4624C34.5329 62.1554 43.1018 62.4503 53.824 62.2635C63.9733 62.0867 72.1138 62.401 78.5002 63.1199M27.8284 61.4624C-0.76546 58.5067 4.55235 48.3097 21.369 37.3556M78.5002 63.1199C72.6651 67.0387 65.271 71.0508 57.1984 74.8573M78.5002 63.1199C98.5937 49.6251 100.2 37.2362 47.3646 38.1567C36.6424 38.3435 28.0735 38.0486 21.369 37.3556M21.369 37.3556C27.6523 33.2628 35.5408 29.0643 43.8656 25.0984M21.369 37.3556C-17.9085 33.2956 6.80091 15.572 37.4062 0.991607" stroke="black"/>
</svg>
