<svg width="209" height="407" viewBox="0 0 209 407" fill="none" xmlns="http://www.w3.org/2000/svg">
<path d="M48.8525 1.1379C6.42719 21.151 -22.51 45.2572 28.2368 50.9851M28.2368 50.9851C37.1124 51.9869 48.4255 52.4266 62.5302 52.1838C140.981 50.8334 136.487 68.0349 107.641 86.8355M28.2368 50.9851C36.3448 45.5367 46.6193 39.959 57.8367 34.6674M28.2368 50.9851C5.67983 66.1432 -0.108143 80.3012 37.221 84.5146M107.641 86.8355C98.9104 92.5258 87.9489 98.3626 76.381 103.876M107.641 86.8355C98.3236 85.8696 86.4151 85.4568 71.5144 85.7133C57.4097 85.9561 46.0966 85.5165 37.221 84.5146M107.641 86.8355C147.38 90.955 139.993 105.135 116.625 120.365M37.221 84.5146C45.329 79.0662 55.6035 73.4885 66.8209 68.1969M37.221 84.5146C14.664 99.6728 8.87607 113.831 46.2052 118.044M116.625 120.365C107.895 126.055 96.9331 131.892 85.3652 137.405M116.625 120.365C107.308 119.399 95.3994 118.986 80.4986 119.243C66.3939 119.486 55.0808 119.046 46.2052 118.044M116.625 120.365C156.364 124.485 148.977 138.665 125.61 153.895M46.2052 118.044C54.3132 112.596 64.5877 107.018 75.8051 101.726M46.2052 118.044C23.6482 133.202 17.8603 147.36 55.1895 151.574M125.61 153.895C116.879 159.585 105.917 165.422 94.3494 170.935M125.61 153.895C116.292 152.929 104.384 152.516 89.4828 152.772C75.3781 153.015 64.065 152.575 55.1895 151.574M125.61 153.895C165.348 158.014 157.961 172.194 134.594 187.424M55.1895 151.574C63.2974 146.125 73.5719 140.548 84.7893 135.256M55.1895 151.574C32.6325 166.732 26.8445 180.89 64.1737 185.103M134.594 187.424C125.863 193.114 114.901 198.951 103.334 204.464M134.594 187.424C125.276 186.458 113.368 186.045 98.467 186.302C84.3623 186.545 73.0492 186.105 64.1737 185.103M134.594 187.424C174.332 191.544 166.945 205.724 143.578 220.954M64.1737 185.103C72.2816 179.655 82.5561 174.077 93.7735 168.785M64.1737 185.103C41.6167 200.261 35.8287 214.419 73.1579 218.633M143.578 220.954C134.847 226.644 123.886 232.481 112.318 237.994M143.578 220.954C134.26 219.988 122.352 219.575 107.451 219.831C93.3465 220.074 82.0334 219.635 73.1579 218.633M143.578 220.954C183.316 225.073 175.929 239.253 152.562 254.483M73.1579 218.633C81.2658 213.184 91.5403 207.607 102.758 202.315M73.1579 218.633C50.6009 233.791 44.8129 247.949 82.1421 252.162M152.562 254.483C143.831 260.173 132.87 266.01 121.302 271.523M152.562 254.483C143.245 253.517 131.336 253.104 116.435 253.361C102.331 253.604 91.0177 253.164 82.1421 252.162M152.562 254.483C192.301 258.603 184.914 272.783 161.546 288.013M82.1421 252.162C90.25 246.714 100.525 241.136 111.742 235.845M82.1421 252.162C59.5851 267.32 53.7971 281.478 91.1263 285.692M161.546 288.013C152.816 293.703 141.854 299.54 130.286 305.053M161.546 288.013C152.229 287.047 140.32 286.634 125.42 286.89C111.315 287.133 100.002 286.694 91.1263 285.692M161.546 288.013C201.285 292.132 193.898 306.312 170.531 321.542M91.1263 285.692C99.2342 280.243 109.509 274.666 120.726 269.374M91.1263 285.692C68.5693 300.85 62.7813 315.008 100.111 319.221M170.531 321.542C161.8 327.232 150.838 333.069 139.27 338.582M170.531 321.542C161.213 320.576 149.305 320.163 134.404 320.42C120.299 320.663 108.986 320.223 100.111 319.221M170.531 321.542C210.269 325.662 202.882 339.842 179.515 355.072M100.111 319.221C108.218 313.773 118.493 308.195 129.71 302.904M100.111 319.221C72.1902 337.983 69.9612 355.213 143.388 353.949C158.289 353.693 170.197 354.106 179.515 355.072M179.515 355.072C170.784 360.762 159.823 366.599 148.255 372.112M179.515 355.072C234.101 360.73 199.767 385.373 157.239 405.641" stroke="black"/>
</svg>
